<svg width="113" height="17" viewBox="0 0 113 17" fill="none" xmlns="http://www.w3.org/2000/svg">
<path d="M6.62109 1.23438C8.5612 1.23438 10.0195 1.55339 10.9961 2.19141C11.9727 2.82943 12.4609 3.77344 12.4609 5.02344C12.4609 5.47917 12.3828 5.90885 12.2266 6.3125C12.0703 6.70312 11.849 7.02214 11.5625 7.26953C11.4193 7.38672 11.2826 7.49089 11.1523 7.58203C11.0221 7.67318 10.8724 7.75781 10.7031 7.83594C10.5469 7.90104 10.3581 7.96615 10.1367 8.03125C9.92839 8.09635 9.68099 8.16797 9.39453 8.24609C9.75911 8.32422 10.0716 8.40234 10.332 8.48047C10.6055 8.55859 10.8464 8.64974 11.0547 8.75391C11.263 8.84505 11.4518 8.94922 11.6211 9.06641C11.7904 9.18359 11.9596 9.32031 12.1289 9.47656C12.8581 10.1276 13.2227 10.9674 13.2227 11.9961C13.2227 12.6211 13.099 13.181 12.8516 13.6758C12.6042 14.1706 12.2461 14.5938 11.7773 14.9453C11.3086 15.2839 10.7422 15.5443 10.0781 15.7266C9.41406 15.9089 8.66536 16 7.83203 16H0.371094V15.5898C0.826823 15.5768 1.19141 15.5443 1.46484 15.4922C1.7513 15.4271 1.97266 15.3229 2.12891 15.1797C2.28516 15.0365 2.38932 14.8411 2.44141 14.5938C2.49349 14.3333 2.51953 14.0013 2.51953 13.5977V3.67578C2.51953 3.25911 2.49349 2.92708 2.44141 2.67969C2.40234 2.43229 2.30469 2.23698 2.14844 2.09375C1.99219 1.95052 1.77083 1.85286 1.48438 1.80078C1.21094 1.7487 0.839844 1.70964 0.371094 1.68359V1.23438H6.62109ZM4.76562 14.2617C4.76562 14.6263 4.86328 14.8737 5.05859 15.0039C5.25391 15.1211 5.61198 15.1797 6.13281 15.1797C6.52344 15.1797 6.86849 15.1732 7.16797 15.1602C7.48047 15.1341 7.76042 15.1016 8.00781 15.0625C8.26823 15.0104 8.5026 14.9453 8.71094 14.8672C8.91927 14.7891 9.11458 14.6979 9.29688 14.5938C10.2083 14.0729 10.6641 13.2135 10.6641 12.0156C10.6641 10.6094 10.0195 9.65885 8.73047 9.16406C8.52214 9.08594 8.29427 9.02083 8.04688 8.96875C7.8125 8.91667 7.53906 8.8776 7.22656 8.85156C6.92708 8.8125 6.57552 8.78646 6.17188 8.77344C5.76823 8.7474 5.29948 8.73438 4.76562 8.73438V14.2617ZM6.91406 7.83594C7.96875 7.83594 8.77604 7.60807 9.33594 7.15234C9.90885 6.68359 10.1953 6.00651 10.1953 5.12109C10.1953 4.10547 9.86328 3.34375 9.19922 2.83594C8.53516 2.32812 7.55208 2.07422 6.25 2.07422H5.27344C4.9349 2.07422 4.76562 2.29557 4.76562 2.73828V7.83594H6.91406ZM15.2734 1.74219C15.6641 1.65104 16.0091 1.57292 16.3086 1.50781C16.6211 1.42969 16.9141 1.35156 17.1875 1.27344C17.474 1.19531 17.7474 1.11719 18.0078 1.03906C18.2682 0.960938 18.5417 0.869792 18.8281 0.765625L18.9258 0.824219V14.125C18.9258 14.4375 18.9453 14.6914 18.9844 14.8867C19.0234 15.069 19.1016 15.2188 19.2188 15.3359C19.3359 15.4401 19.4987 15.5182 19.707 15.5703C19.9284 15.6224 20.2148 15.6615 20.5664 15.6875V16H15.332V15.6875C15.6836 15.6484 15.9701 15.6029 16.1914 15.5508C16.4128 15.4857 16.5885 15.3945 16.7188 15.2773C16.849 15.1471 16.9336 14.9844 16.9727 14.7891C17.0247 14.5938 17.0508 14.3464 17.0508 14.0469V3.42188C17.0508 2.90104 16.9792 2.54948 16.8359 2.36719C16.7057 2.17188 16.4648 2.07422 16.1133 2.07422C16.0091 2.07422 15.8919 2.08073 15.7617 2.09375C15.6445 2.09375 15.5273 2.10026 15.4102 2.11328H15.2734V1.74219ZM31.7578 15.2188C31.1849 15.362 30.6706 15.5052 30.2148 15.6484C29.7591 15.7917 29.2448 15.974 28.6719 16.1953L28.6133 16.1562V14.3008L27.6367 15.2578C27.3372 15.5703 26.9857 15.8112 26.582 15.9805C26.1784 16.1367 25.7682 16.2148 25.3516 16.2148C24.5312 16.2148 23.8737 15.9544 23.3789 15.4336C22.8971 14.9128 22.6562 14.2096 22.6562 13.3242V7.73828C22.6562 7.21745 22.5586 6.85938 22.3633 6.66406C22.181 6.46875 21.8164 6.35156 21.2695 6.3125V5.92188H24.5117V13.2461C24.5117 13.7148 24.668 14.1185 24.9805 14.457C25.293 14.7826 25.6706 14.9453 26.1133 14.9453C26.4518 14.9453 26.7904 14.8802 27.1289 14.75C27.4805 14.6068 27.806 14.3984 28.1055 14.125C28.2487 14.0208 28.3529 13.8841 28.418 13.7148C28.4831 13.5326 28.5156 13.2917 28.5156 12.9922V7.71875C28.5156 7.44531 28.4896 7.22396 28.4375 7.05469C28.3984 6.8724 28.3138 6.72917 28.1836 6.625C28.0664 6.52083 27.8971 6.44922 27.6758 6.41016C27.4544 6.35807 27.1745 6.32552 26.8359 6.3125V5.92188H30.3711V13.6172C30.3711 14.138 30.4557 14.4831 30.625 14.6523C30.7943 14.8086 31.1328 14.8867 31.6406 14.8867H31.7578V15.2188ZM36.2109 5.80469V13.7344C36.2109 14.138 36.224 14.4635 36.25 14.7109C36.2891 14.9453 36.3672 15.1341 36.4844 15.2773C36.6016 15.4076 36.7643 15.4987 36.9727 15.5508C37.194 15.6029 37.4935 15.6484 37.8711 15.6875V16H32.5781V15.6875C32.9688 15.6615 33.2747 15.6224 33.4961 15.5703C33.7305 15.5052 33.9062 15.4076 34.0234 15.2773C34.1536 15.1341 34.2383 14.9453 34.2773 14.7109C34.3164 14.4635 34.3359 14.138 34.3359 13.7344V8.55859C34.3359 8.0638 34.2773 7.71875 34.1602 7.52344C34.056 7.3151 33.8737 7.21094 33.6133 7.21094C33.5091 7.21094 33.3854 7.21745 33.2422 7.23047C33.112 7.24349 32.9753 7.26302 32.832 7.28906L32.6758 7.30859V6.97656L36.1133 5.74609L36.2109 5.80469ZM35.0977 0.765625C35.4102 0.765625 35.6771 0.882812 35.8984 1.11719C36.1198 1.33854 36.2305 1.60547 36.2305 1.91797C36.2305 2.24349 36.1198 2.51693 35.8984 2.73828C35.6901 2.94661 35.4167 3.05078 35.0781 3.05078C34.7526 3.05078 34.4857 2.94661 34.2773 2.73828C34.069 2.51693 33.9648 2.24349 33.9648 1.91797C33.9648 1.60547 34.0755 1.33854 34.2969 1.11719C34.5182 0.882812 34.7852 0.765625 35.0977 0.765625ZM45.0977 9.00781C44.8503 8.00521 44.5443 7.29557 44.1797 6.87891C43.8151 6.46224 43.3138 6.25391 42.6758 6.25391C42.1549 6.25391 41.7383 6.39714 41.4258 6.68359C41.1133 6.95703 40.957 7.32161 40.957 7.77734C40.957 8.41536 41.276 8.92318 41.9141 9.30078L44.3164 10.7266C44.9935 11.1302 45.4753 11.5339 45.7617 11.9375C46.0482 12.3281 46.1914 12.8034 46.1914 13.3633C46.1914 13.7539 46.1068 14.125 45.9375 14.4766C45.7682 14.8281 45.5404 15.1341 45.2539 15.3945C44.9805 15.6419 44.6549 15.8438 44.2773 16C43.8997 16.1432 43.4961 16.2148 43.0664 16.2148C42.832 16.2148 42.5781 16.1953 42.3047 16.1562C42.0312 16.1302 41.7318 16.0781 41.4062 16C41.1458 15.9349 40.944 15.8893 40.8008 15.8633C40.6576 15.8372 40.5208 15.8242 40.3906 15.8242C40.2604 15.8242 40.1628 15.8438 40.0977 15.8828C40.0326 15.9219 39.9609 15.9935 39.8828 16.0977H39.5898V12.6211H39.9414C40.0716 13.194 40.2214 13.6758 40.3906 14.0664C40.5599 14.457 40.7552 14.776 40.9766 15.0234C41.1979 15.2708 41.4583 15.4531 41.7578 15.5703C42.0573 15.6745 42.3958 15.7266 42.7734 15.7266C43.3594 15.7266 43.8151 15.5833 44.1406 15.2969C44.4792 15.0104 44.6484 14.6198 44.6484 14.125C44.6484 13.4609 44.2578 12.9076 43.4766 12.4648L42.1875 11.7227C41.7057 11.4492 41.2956 11.1888 40.957 10.9414C40.6315 10.694 40.3646 10.4466 40.1562 10.1992C39.9479 9.9388 39.7982 9.67188 39.707 9.39844C39.6159 9.125 39.5703 8.83203 39.5703 8.51953C39.5703 8.11589 39.6419 7.74479 39.7852 7.40625C39.9414 7.06771 40.1497 6.77474 40.4102 6.52734C40.6836 6.27995 41.0091 6.09115 41.3867 5.96094C41.7643 5.83073 42.181 5.76562 42.6367 5.76562C43.1576 5.76562 43.6589 5.85677 44.1406 6.03906C44.4141 6.15625 44.6224 6.21484 44.7656 6.21484C44.8177 6.21484 44.8568 6.20182 44.8828 6.17578C44.9089 6.14974 44.974 6.09115 45.0781 6L45.0977 5.96094H45.3711L45.4492 9.00781H45.0977ZM50.6055 13.7344C50.6055 14.112 50.625 14.4245 50.6641 14.6719C50.7031 14.9062 50.7747 15.0951 50.8789 15.2383C50.9831 15.3685 51.1328 15.4661 51.3281 15.5312C51.5365 15.5964 51.8034 15.6484 52.1289 15.6875V16H47.3047V15.6875C47.6302 15.6354 47.8841 15.5768 48.0664 15.5117C48.2617 15.4466 48.4049 15.349 48.4961 15.2188C48.6003 15.0755 48.6654 14.8932 48.6914 14.6719C48.7174 14.4375 48.7305 14.125 48.7305 13.7344V3.22656C48.7305 2.99219 48.7174 2.80339 48.6914 2.66016C48.6654 2.50391 48.6068 2.38672 48.5156 2.30859C48.4375 2.21745 48.3203 2.15885 48.1641 2.13281C48.0208 2.10677 47.832 2.09375 47.5977 2.09375C47.4674 2.09375 47.3763 2.10026 47.3242 2.11328V1.74219L47.9297 1.58594C48.2422 1.48177 48.5156 1.39714 48.75 1.33203C48.9844 1.25391 49.1992 1.1888 49.3945 1.13672C49.5898 1.07161 49.7721 1.01302 49.9414 0.960938C50.1107 0.895833 50.293 0.830729 50.4883 0.765625L50.6055 0.84375V7.64062C51.1263 6.95052 51.6341 6.46224 52.1289 6.17578C52.6367 5.88932 53.2161 5.74609 53.8672 5.74609C54.8047 5.74609 55.4948 6.04557 55.9375 6.64453C56.3802 7.24349 56.6016 8.12891 56.6016 9.30078V13.7344C56.6016 14.112 56.6146 14.418 56.6406 14.6523C56.6667 14.8737 56.7253 15.056 56.8164 15.1992C56.9206 15.3294 57.0638 15.4336 57.2461 15.5117C57.4284 15.5768 57.6693 15.6354 57.9688 15.6875V16H53.2422V15.6875C53.5677 15.6484 53.8281 15.5964 54.0234 15.5312C54.2188 15.4661 54.3685 15.3685 54.4727 15.2383C54.5898 15.0951 54.6615 14.9062 54.6875 14.6719C54.7266 14.4245 54.7461 14.112 54.7461 13.7344V9.33984C54.7461 7.76432 54.1992 6.97656 53.1055 6.97656C52.6497 6.97656 52.2331 7.08073 51.8555 7.28906C51.4909 7.48438 51.0742 7.84245 50.6055 8.36328V13.7344ZM73.457 16H73.125L67.5195 3.75391V12.7188C67.5195 13.2917 67.5456 13.7604 67.5977 14.125C67.6628 14.4766 67.7734 14.7565 67.9297 14.9648C68.0859 15.1732 68.3008 15.3229 68.5742 15.4141C68.8477 15.5052 69.1992 15.5638 69.6289 15.5898V16H64.3945V15.5898C64.8503 15.5508 65.2148 15.4922 65.4883 15.4141C65.7747 15.3229 65.9896 15.1732 66.1328 14.9648C66.2891 14.7565 66.3932 14.4766 66.4453 14.125C66.4974 13.7604 66.5234 13.2917 66.5234 12.7188V3.67578C66.5234 3.27214 66.4974 2.94661 66.4453 2.69922C66.4062 2.45182 66.3086 2.25651 66.1523 2.11328C66.0091 1.97005 65.8008 1.8724 65.5273 1.82031C65.2539 1.75521 64.8893 1.70964 64.4336 1.68359V1.23438H68.8477L73.9844 12.5039L78.9453 1.23438H83.3594V1.68359C82.9427 1.70964 82.6107 1.75521 82.3633 1.82031C82.1159 1.88542 81.9206 1.98958 81.7773 2.13281C81.6341 2.27604 81.5365 2.47135 81.4844 2.71875C81.4453 2.96615 81.4258 3.28516 81.4258 3.67578V13.5977C81.4258 13.9883 81.4518 14.3073 81.5039 14.5547C81.556 14.8021 81.6471 14.9974 81.7773 15.1406C81.9206 15.2839 82.1159 15.388 82.3633 15.4531C82.6237 15.5182 82.9557 15.5638 83.3594 15.5898V16H77.1094V15.5898C77.5521 15.5638 77.9036 15.5182 78.1641 15.4531C78.4375 15.388 78.6458 15.2773 78.7891 15.1211C78.9323 14.9518 79.0234 14.7305 79.0625 14.457C79.1146 14.1706 79.1406 13.793 79.1406 13.3242V3.22656L73.457 16ZM92.168 13.6562C92.168 14.151 92.2135 14.4961 92.3047 14.6914C92.3958 14.8737 92.5716 14.9648 92.832 14.9648C93.1315 14.9648 93.457 14.8281 93.8086 14.5547V15.1211C93.431 15.5378 93.099 15.8242 92.8125 15.9805C92.526 16.1367 92.194 16.2148 91.8164 16.2148C91.3607 16.2148 91.0221 16.0911 90.8008 15.8438C90.5924 15.5833 90.4622 15.1536 90.4102 14.5547C89.7331 15.1406 89.1406 15.5638 88.6328 15.8242C88.125 16.0846 87.6302 16.2148 87.1484 16.2148C86.4453 16.2148 85.8724 15.9935 85.4297 15.5508C85 15.1081 84.7852 14.5352 84.7852 13.832C84.7852 13.4805 84.8503 13.1289 84.9805 12.7773C85.1237 12.4128 85.3255 12.1198 85.5859 11.8984C85.8203 11.6901 86.0352 11.5143 86.2305 11.3711C86.4388 11.2148 86.7057 11.0586 87.0312 10.9023C87.3568 10.7331 87.7799 10.5443 88.3008 10.3359C88.8216 10.1276 89.5117 9.84766 90.3711 9.49609V8.07031C90.3711 7.45833 90.2214 6.99609 89.9219 6.68359C89.6354 6.37109 89.2188 6.21484 88.6719 6.21484C88.2161 6.21484 87.832 6.32552 87.5195 6.54688C87.2201 6.75521 87.0703 7.00911 87.0703 7.30859C87.0703 7.42578 87.0833 7.57552 87.1094 7.75781C87.1484 7.9401 87.168 8.08984 87.168 8.20703C87.168 8.46745 87.0638 8.6888 86.8555 8.87109C86.6602 9.05339 86.4323 9.14453 86.1719 9.14453C85.9115 9.14453 85.6836 9.05339 85.4883 8.87109C85.306 8.67578 85.2148 8.44792 85.2148 8.1875C85.2148 7.90104 85.293 7.60807 85.4492 7.30859C85.6185 7.00911 85.8464 6.74219 86.1328 6.50781C86.4323 6.2474 86.8294 6.04557 87.3242 5.90234C87.832 5.75911 88.3789 5.6875 88.9648 5.6875C89.6419 5.6875 90.2083 5.80469 90.6641 6.03906C91.1328 6.26042 91.4909 6.57292 91.7383 6.97656C91.8945 7.23698 92.0052 7.54297 92.0703 7.89453C92.1354 8.23307 92.168 8.69531 92.168 9.28125V13.6562ZM90.3711 10.043C89.694 10.2904 89.1146 10.5312 88.6328 10.7656C88.1641 10.987 87.7799 11.2214 87.4805 11.4688C87.194 11.7031 86.9857 11.957 86.8555 12.2305C86.7253 12.5039 86.6602 12.8034 86.6602 13.1289V13.2266C86.6602 13.4609 86.6992 13.6888 86.7773 13.9102C86.8555 14.1185 86.9596 14.3008 87.0898 14.457C87.2331 14.6133 87.3958 14.737 87.5781 14.8281C87.7604 14.9193 87.9492 14.9648 88.1445 14.9648C88.3789 14.9648 88.6393 14.9193 88.9258 14.8281C89.2253 14.724 89.5052 14.6003 89.7656 14.457C90.026 14.3138 90.1888 14.1641 90.2539 14.0078C90.332 13.8516 90.3711 13.6042 90.3711 13.2656V10.043ZM94.0234 6.97656C94.349 6.85938 94.6484 6.75521 94.9219 6.66406C95.1953 6.5599 95.4557 6.46224 95.7031 6.37109C95.9635 6.26693 96.2174 6.16927 96.4648 6.07812C96.7253 5.97396 97.0052 5.86328 97.3047 5.74609L97.4414 5.78516V7.83594C97.7148 7.43229 97.9622 7.10026 98.1836 6.83984C98.4049 6.56641 98.6198 6.35156 98.8281 6.19531C99.0365 6.02604 99.2383 5.90885 99.4336 5.84375C99.6419 5.77865 99.8633 5.74609 100.098 5.74609C100.475 5.74609 100.775 5.85677 100.996 6.07812C101.217 6.28646 101.328 6.56641 101.328 6.91797C101.328 7.24349 101.25 7.4974 101.094 7.67969C100.938 7.84896 100.729 7.93359 100.469 7.93359C100.326 7.93359 100.182 7.90755 100.039 7.85547C99.9089 7.79036 99.7526 7.66667 99.5703 7.48438C99.4531 7.38021 99.3424 7.30208 99.2383 7.25C99.1341 7.19792 99.0495 7.17188 98.9844 7.17188C98.8281 7.17188 98.6589 7.23698 98.4766 7.36719C98.3073 7.48438 98.1445 7.63411 97.9883 7.81641C97.832 7.9987 97.7018 8.19401 97.5977 8.40234C97.4935 8.61068 97.4414 8.80599 97.4414 8.98828V14.0078C97.4414 14.3203 97.4674 14.5807 97.5195 14.7891C97.5716 14.9974 97.6693 15.1667 97.8125 15.2969C97.9557 15.4141 98.151 15.5052 98.3984 15.5703C98.6458 15.6354 98.9583 15.6745 99.3359 15.6875V16H93.9648V15.6875C94.3164 15.6224 94.5964 15.5573 94.8047 15.4922C95.026 15.4141 95.1888 15.3229 95.293 15.2188C95.4102 15.1146 95.4818 14.9779 95.5078 14.8086C95.5469 14.6263 95.5664 14.3984 95.5664 14.125V8.55859C95.5664 8.0638 95.5078 7.71875 95.3906 7.52344C95.2734 7.3151 95.0781 7.21094 94.8047 7.21094C94.6615 7.21094 94.5312 7.21745 94.4141 7.23047C94.3099 7.24349 94.1797 7.26953 94.0234 7.30859V6.97656ZM101.465 1.74219L102.129 1.58594C102.467 1.49479 102.76 1.41667 103.008 1.35156C103.255 1.27344 103.483 1.20182 103.691 1.13672C103.913 1.07161 104.115 1.01302 104.297 0.960938C104.492 0.895833 104.701 0.830729 104.922 0.765625L105 0.824219V10.1992L108.066 7.46484C108.405 7.15234 108.574 6.88542 108.574 6.66406C108.574 6.53385 108.496 6.44271 108.34 6.39062C108.184 6.33854 107.891 6.29948 107.461 6.27344V5.96094H112.012V6.3125C111.66 6.29948 111.341 6.32552 111.055 6.39062C110.768 6.44271 110.456 6.56641 110.117 6.76172C109.779 6.95703 109.382 7.24349 108.926 7.62109C108.47 7.98568 107.891 8.48047 107.188 9.10547L106.543 9.69141L109.98 14.0469C110.436 14.6198 110.853 15.0299 111.23 15.2773C111.621 15.5117 112.064 15.6484 112.559 15.6875V16H107.715V15.6875H108.125C108.268 15.6875 108.379 15.6549 108.457 15.5898C108.548 15.5247 108.594 15.4401 108.594 15.3359C108.594 15.2708 108.574 15.2057 108.535 15.1406C108.509 15.0625 108.444 14.9714 108.34 14.8672C108.262 14.763 108.216 14.6979 108.203 14.6719L108.125 14.5742L105 10.4141V14.5156C105 14.8932 105.091 15.1732 105.273 15.3555C105.469 15.5247 105.788 15.6224 106.23 15.6484L106.68 15.6875V16H101.465V15.6875C101.855 15.6224 102.161 15.5638 102.383 15.5117C102.617 15.4466 102.786 15.3685 102.891 15.2773C102.995 15.1732 103.06 15.0365 103.086 14.8672C103.112 14.6979 103.125 14.4701 103.125 14.1836V3.42188C103.125 2.88802 103.06 2.52995 102.93 2.34766C102.799 2.16536 102.546 2.07422 102.168 2.07422C102.064 2.07422 101.953 2.08073 101.836 2.09375C101.732 2.09375 101.608 2.10026 101.465 2.11328V1.74219Z" fill="#A4A4A4"/>
</svg>
