<svg width="786" height="109" viewBox="0 0 786 109" fill="none" xmlns="http://www.w3.org/2000/svg">
<path d="M44.3477 3.64062C57.9284 3.64062 68.1367 5.8737 74.9727 10.3398C81.8086 14.806 85.2266 21.4141 85.2266 30.1641C85.2266 33.3542 84.6797 36.362 83.5859 39.1875C82.4922 41.9219 80.9427 44.1549 78.9375 45.8867C77.9349 46.707 76.9779 47.4362 76.0664 48.0742C75.1549 48.7122 74.1068 49.3047 72.9219 49.8516C71.8281 50.3073 70.5065 50.763 68.957 51.2188C67.4987 51.6745 65.7669 52.1758 63.7617 52.7227C66.3138 53.2695 68.5013 53.8164 70.3242 54.3633C72.2383 54.9102 73.9245 55.5482 75.3828 56.2773C76.8411 56.9154 78.1628 57.6445 79.3477 58.4648C80.5326 59.2852 81.7174 60.2422 82.9023 61.3359C88.0065 65.8932 90.5586 71.7721 90.5586 78.9727C90.5586 83.3477 89.6927 87.2669 87.9609 90.7305C86.2292 94.194 83.7227 97.1562 80.4414 99.6172C77.1602 101.987 73.1953 103.81 68.5469 105.086C63.8984 106.362 58.6576 107 52.8242 107H0.597656V104.129C3.78776 104.038 6.33984 103.81 8.25391 103.445C10.2591 102.99 11.8086 102.26 12.9023 101.258C13.9961 100.255 14.7253 98.888 15.0898 97.1562C15.4544 95.3333 15.6367 93.0091 15.6367 90.1836V20.7305C15.6367 17.8138 15.4544 15.4896 15.0898 13.7578C14.8164 12.026 14.1328 10.6589 13.0391 9.65625C11.9453 8.65365 10.3958 7.97005 8.39062 7.60547C6.47656 7.24089 3.87891 6.96745 0.597656 6.78516V3.64062H44.3477ZM31.3594 94.832C31.3594 97.3841 32.043 99.1159 33.4102 100.027C34.7773 100.848 37.2839 101.258 40.9297 101.258C43.6641 101.258 46.0794 101.212 48.1758 101.121C50.3633 100.939 52.3229 100.711 54.0547 100.438C55.8776 100.073 57.5182 99.6172 58.9766 99.0703C60.4349 98.5234 61.8021 97.8854 63.0781 97.1562C69.4583 93.5104 72.6484 87.4948 72.6484 79.1094C72.6484 69.2656 68.1367 62.612 59.1133 59.1484C57.6549 58.6016 56.0599 58.1458 54.3281 57.7812C52.6875 57.4167 50.7734 57.1432 48.5859 56.9609C46.4896 56.6875 44.0286 56.5052 41.2031 56.4141C38.3776 56.2318 35.0964 56.1406 31.3594 56.1406V94.832ZM46.3984 49.8516C53.7812 49.8516 59.4323 48.2565 63.3516 45.0664C67.362 41.7852 69.3672 37.0456 69.3672 30.8477C69.3672 23.7383 67.043 18.4062 62.3945 14.8516C57.7461 11.2969 50.8646 9.51953 41.75 9.51953H34.9141C32.5443 9.51953 31.3594 11.069 31.3594 14.168V49.8516H46.3984ZM104.914 7.19531C107.648 6.55729 110.064 6.01042 112.16 5.55469C114.348 5.00781 116.398 4.46094 118.312 3.91406C120.318 3.36719 122.232 2.82031 124.055 2.27344C125.878 1.72656 127.792 1.08854 129.797 0.359375L130.48 0.769531V93.875C130.48 96.0625 130.617 97.8398 130.891 99.207C131.164 100.483 131.711 101.531 132.531 102.352C133.352 103.081 134.491 103.628 135.949 103.992C137.499 104.357 139.504 104.63 141.965 104.812V107H105.324V104.812C107.785 104.539 109.79 104.22 111.34 103.855C112.889 103.4 114.12 102.762 115.031 101.941C115.943 101.03 116.535 99.8906 116.809 98.5234C117.173 97.1562 117.355 95.4245 117.355 93.3281V18.9531C117.355 15.3073 116.854 12.8464 115.852 11.5703C114.94 10.2031 113.254 9.51953 110.793 9.51953C110.064 9.51953 109.243 9.5651 108.332 9.65625C107.512 9.65625 106.691 9.70182 105.871 9.79297H104.914V7.19531ZM220.305 101.531C216.294 102.534 212.694 103.536 209.504 104.539C206.314 105.542 202.714 106.818 198.703 108.367L198.293 108.094V95.1055L191.457 101.805C189.361 103.992 186.9 105.678 184.074 106.863C181.249 107.957 178.378 108.504 175.461 108.504C169.719 108.504 165.116 106.681 161.652 103.035C158.28 99.3893 156.594 94.4674 156.594 88.2695V49.168C156.594 45.5221 155.91 43.0156 154.543 41.6484C153.267 40.2812 150.715 39.4609 146.887 39.1875V36.4531H169.582V87.7227C169.582 91.0039 170.676 93.8294 172.863 96.1992C175.051 98.4779 177.694 99.6172 180.793 99.6172C183.163 99.6172 185.533 99.1615 187.902 98.25C190.363 97.2474 192.642 95.7891 194.738 93.875C195.741 93.1458 196.47 92.1888 196.926 91.0039C197.382 89.7279 197.609 88.0417 197.609 85.9453V49.0312C197.609 47.1172 197.427 45.5677 197.062 44.3828C196.789 43.1068 196.197 42.1042 195.285 41.375C194.465 40.6458 193.28 40.1445 191.73 39.8711C190.181 39.5065 188.221 39.2786 185.852 39.1875V36.4531H210.598V90.3203C210.598 93.9661 211.19 96.3815 212.375 97.5664C213.56 98.6602 215.93 99.207 219.484 99.207H220.305V101.531ZM251.477 35.6328V91.1406C251.477 93.9661 251.568 96.2448 251.75 97.9766C252.023 99.6172 252.57 100.939 253.391 101.941C254.211 102.853 255.35 103.491 256.809 103.855C258.358 104.22 260.454 104.539 263.098 104.812V107H226.047V104.812C228.781 104.63 230.923 104.357 232.473 103.992C234.113 103.536 235.344 102.853 236.164 101.941C237.076 100.939 237.668 99.6172 237.941 97.9766C238.215 96.2448 238.352 93.9661 238.352 91.1406V54.9102C238.352 51.4466 237.941 49.0312 237.121 47.6641C236.392 46.2057 235.116 45.4766 233.293 45.4766C232.564 45.4766 231.698 45.5221 230.695 45.6133C229.784 45.7044 228.827 45.8411 227.824 46.0234L226.73 46.1602V43.8359L250.793 35.2227L251.477 35.6328ZM243.684 0.359375C245.871 0.359375 247.74 1.17969 249.289 2.82031C250.839 4.36979 251.613 6.23828 251.613 8.42578C251.613 10.7044 250.839 12.6185 249.289 14.168C247.831 15.6263 245.917 16.3555 243.547 16.3555C241.268 16.3555 239.4 15.6263 237.941 14.168C236.483 12.6185 235.754 10.7044 235.754 8.42578C235.754 6.23828 236.529 4.36979 238.078 2.82031C239.628 1.17969 241.496 0.359375 243.684 0.359375ZM313.684 58.0547C311.952 51.0365 309.81 46.069 307.258 43.1523C304.706 40.2357 301.197 38.7773 296.73 38.7773C293.085 38.7773 290.168 39.7799 287.98 41.7852C285.793 43.6992 284.699 46.2513 284.699 49.4414C284.699 53.9076 286.932 57.4622 291.398 60.1055L308.215 70.0859C312.954 72.9115 316.327 75.737 318.332 78.5625C320.337 81.2969 321.34 84.6237 321.34 88.543C321.34 91.2773 320.747 93.875 319.562 96.3359C318.378 98.7969 316.783 100.939 314.777 102.762C312.863 104.493 310.585 105.906 307.941 107C305.298 108.003 302.473 108.504 299.465 108.504C297.824 108.504 296.047 108.367 294.133 108.094C292.219 107.911 290.122 107.547 287.844 107C286.021 106.544 284.608 106.225 283.605 106.043C282.603 105.861 281.646 105.77 280.734 105.77C279.823 105.77 279.139 105.906 278.684 106.18C278.228 106.453 277.727 106.954 277.18 107.684H275.129V83.3477H277.59C278.501 87.3581 279.549 90.7305 280.734 93.4648C281.919 96.1992 283.286 98.4323 284.836 100.164C286.385 101.896 288.208 103.172 290.305 103.992C292.401 104.721 294.771 105.086 297.414 105.086C301.516 105.086 304.706 104.083 306.984 102.078C309.354 100.073 310.539 97.3385 310.539 93.875C310.539 89.2266 307.805 85.3529 302.336 82.2539L293.312 77.0586C289.94 75.1445 287.069 73.3216 284.699 71.5898C282.421 69.8581 280.552 68.1263 279.094 66.3945C277.635 64.5716 276.587 62.7031 275.949 60.7891C275.311 58.875 274.992 56.8242 274.992 54.6367C274.992 51.8112 275.493 49.2135 276.496 46.8438C277.59 44.474 279.048 42.4232 280.871 40.6914C282.785 38.9596 285.064 37.638 287.707 36.7266C290.35 35.8151 293.267 35.3594 296.457 35.3594C300.103 35.3594 303.612 35.9974 306.984 37.2734C308.898 38.0938 310.357 38.5039 311.359 38.5039C311.724 38.5039 311.997 38.4128 312.18 38.2305C312.362 38.0482 312.818 37.638 313.547 37L313.684 36.7266H315.598L316.145 58.0547H313.684ZM352.238 91.1406C352.238 93.7839 352.375 95.9714 352.648 97.7031C352.922 99.3438 353.423 100.665 354.152 101.668C354.882 102.579 355.93 103.263 357.297 103.719C358.755 104.174 360.624 104.539 362.902 104.812V107H329.133V104.812C331.411 104.448 333.189 104.038 334.465 103.582C335.832 103.126 336.835 102.443 337.473 101.531C338.202 100.529 338.658 99.2526 338.84 97.7031C339.022 96.0625 339.113 93.875 339.113 91.1406V17.5859C339.113 15.9453 339.022 14.6237 338.84 13.6211C338.658 12.5273 338.247 11.707 337.609 11.1602C337.062 10.5221 336.242 10.112 335.148 9.92969C334.146 9.7474 332.824 9.65625 331.184 9.65625C330.272 9.65625 329.634 9.70182 329.27 9.79297V7.19531L333.508 6.10156C335.695 5.3724 337.609 4.77995 339.25 4.32422C340.891 3.77734 342.395 3.32161 343.762 2.95703C345.129 2.5013 346.405 2.09115 347.59 1.72656C348.775 1.27083 350.051 0.815104 351.418 0.359375L352.238 0.90625V48.4844C355.884 43.6536 359.439 40.2357 362.902 38.2305C366.457 36.2253 370.513 35.2227 375.07 35.2227C381.633 35.2227 386.464 37.319 389.562 41.5117C392.661 45.7044 394.211 51.9023 394.211 60.1055V91.1406C394.211 93.7839 394.302 95.9258 394.484 97.5664C394.667 99.1159 395.077 100.392 395.715 101.395C396.444 102.306 397.447 103.035 398.723 103.582C399.999 104.038 401.685 104.448 403.781 104.812V107H370.695V104.812C372.974 104.539 374.797 104.174 376.164 103.719C377.531 103.263 378.579 102.579 379.309 101.668C380.129 100.665 380.63 99.3438 380.812 97.7031C381.086 95.9714 381.223 93.7839 381.223 91.1406V60.3789C381.223 49.3503 377.395 43.8359 369.738 43.8359C366.548 43.8359 363.632 44.5651 360.988 46.0234C358.436 47.3906 355.52 49.8971 352.238 53.543V91.1406ZM512.199 107H509.875L470.637 21.2773V84.0312C470.637 88.0417 470.819 91.3229 471.184 93.875C471.639 96.3359 472.414 98.2956 473.508 99.7539C474.602 101.212 476.105 102.26 478.02 102.898C479.934 103.536 482.395 103.947 485.402 104.129V107H448.762V104.129C451.952 103.855 454.504 103.445 456.418 102.898C458.423 102.26 459.927 101.212 460.93 99.7539C462.023 98.2956 462.753 96.3359 463.117 93.875C463.482 91.3229 463.664 88.0417 463.664 84.0312V20.7305C463.664 17.9049 463.482 15.6263 463.117 13.8945C462.844 12.1628 462.16 10.7956 461.066 9.79297C460.064 8.79036 458.605 8.10677 456.691 7.74219C454.777 7.28646 452.225 6.96745 449.035 6.78516V3.64062H479.934L515.891 82.5273L550.617 3.64062H581.516V6.78516C578.599 6.96745 576.275 7.28646 574.543 7.74219C572.811 8.19792 571.444 8.92708 570.441 9.92969C569.439 10.9323 568.755 12.2995 568.391 14.0312C568.117 15.763 567.98 17.9961 567.98 20.7305V90.1836C567.98 92.918 568.163 95.151 568.527 96.8828C568.892 98.6146 569.53 99.9818 570.441 100.984C571.444 101.987 572.811 102.716 574.543 103.172C576.366 103.628 578.69 103.947 581.516 104.129V107H537.766V104.129C540.865 103.947 543.326 103.628 545.148 103.172C547.062 102.716 548.521 101.941 549.523 100.848C550.526 99.6628 551.164 98.1133 551.438 96.1992C551.802 94.194 551.984 91.5508 551.984 88.2695V17.5859L512.199 107ZM643.176 90.5938C643.176 94.0573 643.495 96.4727 644.133 97.8398C644.771 99.1159 646.001 99.7539 647.824 99.7539C649.921 99.7539 652.199 98.7969 654.66 96.8828V100.848C652.017 103.764 649.693 105.77 647.688 106.863C645.682 107.957 643.358 108.504 640.715 108.504C637.525 108.504 635.155 107.638 633.605 105.906C632.147 104.083 631.236 101.076 630.871 96.8828C626.132 100.984 621.984 103.947 618.43 105.77C614.875 107.592 611.411 108.504 608.039 108.504C603.117 108.504 599.107 106.954 596.008 103.855C593 100.757 591.496 96.7461 591.496 91.8242C591.496 89.3633 591.952 86.9023 592.863 84.4414C593.866 81.8893 595.279 79.8385 597.102 78.2891C598.742 76.8307 600.246 75.6003 601.613 74.5977C603.072 73.5039 604.94 72.4102 607.219 71.3164C609.497 70.1315 612.46 68.8099 616.105 67.3516C619.751 65.8932 624.582 63.9336 630.598 61.4727V51.4922C630.598 47.2083 629.549 43.9727 627.453 41.7852C625.448 39.5977 622.531 38.5039 618.703 38.5039C615.513 38.5039 612.824 39.2786 610.637 40.8281C608.54 42.2865 607.492 44.0638 607.492 46.1602C607.492 46.9805 607.583 48.0286 607.766 49.3047C608.039 50.5807 608.176 51.6289 608.176 52.4492C608.176 54.2721 607.447 55.8216 605.988 57.0977C604.621 58.3737 603.026 59.0117 601.203 59.0117C599.38 59.0117 597.785 58.3737 596.418 57.0977C595.142 55.7305 594.504 54.1354 594.504 52.3125C594.504 50.3073 595.051 48.2565 596.145 46.1602C597.329 44.0638 598.924 42.1953 600.93 40.5547C603.026 38.7318 605.806 37.319 609.27 36.3164C612.824 35.3138 616.652 34.8125 620.754 34.8125C625.493 34.8125 629.458 35.6328 632.648 37.2734C635.93 38.8229 638.436 41.0104 640.168 43.8359C641.262 45.6589 642.036 47.8008 642.492 50.2617C642.948 52.6315 643.176 55.8672 643.176 59.9688V90.5938ZM630.598 65.3008C625.858 67.0326 621.802 68.7188 618.43 70.3594C615.148 71.9089 612.46 73.5495 610.363 75.2812C608.358 76.9219 606.9 78.6992 605.988 80.6133C605.077 82.5273 604.621 84.6237 604.621 86.9023V87.5859C604.621 89.2266 604.895 90.8216 605.441 92.3711C605.988 93.8294 606.717 95.1055 607.629 96.1992C608.632 97.293 609.771 98.1589 611.047 98.7969C612.323 99.4349 613.645 99.7539 615.012 99.7539C616.652 99.7539 618.475 99.4349 620.48 98.7969C622.577 98.0677 624.536 97.2018 626.359 96.1992C628.182 95.1966 629.322 94.1484 629.777 93.0547C630.324 91.9609 630.598 90.2292 630.598 87.8594V65.3008ZM656.164 43.8359C658.443 43.0156 660.539 42.2865 662.453 41.6484C664.367 40.9193 666.19 40.2357 667.922 39.5977C669.745 38.8685 671.522 38.1849 673.254 37.5469C675.077 36.8177 677.036 36.043 679.133 35.2227L680.09 35.4961V49.8516C682.004 47.026 683.736 44.7018 685.285 42.8789C686.835 40.9648 688.339 39.4609 689.797 38.3672C691.255 37.1823 692.668 36.362 694.035 35.9062C695.493 35.4505 697.043 35.2227 698.684 35.2227C701.327 35.2227 703.423 35.9974 704.973 37.5469C706.522 39.0052 707.297 40.9648 707.297 43.4258C707.297 45.7044 706.75 47.4818 705.656 48.7578C704.562 49.9427 703.104 50.5352 701.281 50.5352C700.279 50.5352 699.276 50.3529 698.273 49.9883C697.362 49.5326 696.268 48.6667 694.992 47.3906C694.172 46.6615 693.397 46.1146 692.668 45.75C691.939 45.3854 691.346 45.2031 690.891 45.2031C689.797 45.2031 688.612 45.6589 687.336 46.5703C686.151 47.3906 685.012 48.4388 683.918 49.7148C682.824 50.9909 681.913 52.3581 681.184 53.8164C680.454 55.2747 680.09 56.6419 680.09 57.918V93.0547C680.09 95.2422 680.272 97.0651 680.637 98.5234C681.001 99.9818 681.685 101.167 682.688 102.078C683.69 102.898 685.057 103.536 686.789 103.992C688.521 104.448 690.708 104.721 693.352 104.812V107H655.754V104.812C658.215 104.357 660.174 103.901 661.633 103.445C663.182 102.898 664.322 102.26 665.051 101.531C665.871 100.802 666.372 99.8451 666.555 98.6602C666.828 97.3841 666.965 95.7891 666.965 93.875V54.9102C666.965 51.4466 666.555 49.0312 665.734 47.6641C664.914 46.2057 663.547 45.4766 661.633 45.4766C660.63 45.4766 659.719 45.5221 658.898 45.6133C658.169 45.7044 657.258 45.8867 656.164 46.1602V43.8359ZM708.254 7.19531L712.902 6.10156C715.272 5.46354 717.323 4.91667 719.055 4.46094C720.786 3.91406 722.382 3.41276 723.84 2.95703C725.389 2.5013 726.802 2.09115 728.078 1.72656C729.445 1.27083 730.904 0.815104 732.453 0.359375L733 0.769531V66.3945L754.465 47.2539C756.835 45.0664 758.02 43.1979 758.02 41.6484C758.02 40.737 757.473 40.099 756.379 39.7344C755.285 39.3698 753.234 39.0964 750.227 38.9141V36.7266H782.082V39.1875C779.621 39.0964 777.388 39.2786 775.383 39.7344C773.378 40.099 771.19 40.9648 768.82 42.332C766.451 43.6992 763.671 45.7044 760.48 48.3477C757.29 50.8997 753.234 54.3633 748.312 58.7383L743.801 62.8398L767.863 93.3281C771.053 97.3385 773.97 100.21 776.613 101.941C779.348 103.582 782.447 104.539 785.91 104.812V107H752.004V104.812H754.875C755.878 104.812 756.652 104.585 757.199 104.129C757.837 103.673 758.156 103.081 758.156 102.352C758.156 101.896 758.02 101.44 757.746 100.984C757.564 100.438 757.108 99.7995 756.379 99.0703C755.832 98.3411 755.513 97.8854 755.422 97.7031L754.875 97.0195L733 67.8984V96.6094C733 99.2526 733.638 101.212 734.914 102.488C736.281 103.673 738.514 104.357 741.613 104.539L744.758 104.812V107H708.254V104.812C710.988 104.357 713.13 103.947 714.68 103.582C716.32 103.126 717.505 102.579 718.234 101.941C718.964 101.212 719.419 100.255 719.602 99.0703C719.784 97.8854 719.875 96.2904 719.875 94.2852V18.9531C719.875 15.2161 719.419 12.7096 718.508 11.4336C717.596 10.1576 715.819 9.51953 713.176 9.51953C712.447 9.51953 711.672 9.5651 710.852 9.65625C710.122 9.65625 709.257 9.70182 708.254 9.79297V7.19531Z" fill="#404040"/>
</svg>
