<svg width="574" height="43" viewBox="0 0 574 43" fill="none" xmlns="http://www.w3.org/2000/svg">
<path d="M22.464 7.4H25.44L14.16 27.176V41H11.52V27.224L0.432 7.4H3.408L12.816 24.776L22.464 7.4ZM31.299 41V38.504H47.955V41H31.299ZM31.299 9.896V7.4H47.955V9.896H31.299ZM31.299 23.816V21.32H46.995V23.816H31.299ZM29.907 7.4H32.547V41H29.907V7.4ZM81.0836 7.4H83.7236V42.296L58.1876 12.968V41H55.5476V6.104L81.0836 35.528V7.4ZM91.686 7.4H94.326V41H91.686V7.4ZM91.206 2.168C91.206 1.656 91.382 1.224 91.734 0.871999C92.086 0.519998 92.502 0.343997 92.982 0.343997C93.494 0.343997 93.926 0.519998 94.278 0.871999C94.63 1.224 94.806 1.656 94.806 2.168C94.806 2.648 94.63 3.064 94.278 3.416C93.926 3.768 93.494 3.944 92.982 3.944C92.502 3.944 92.086 3.768 91.734 3.416C91.382 3.064 91.206 2.648 91.206 2.168ZM116.577 7.4H119.217V41H116.577V7.4ZM133.137 7.4H136.497L121.713 23.144L137.217 41H133.857L118.449 23.192L133.137 7.4ZM140.177 24.2C140.177 26.984 140.769 29.48 141.953 31.688C143.169 33.896 144.817 35.64 146.897 36.92C149.009 38.168 151.409 38.792 154.097 38.792C156.785 38.792 159.169 38.168 161.249 36.92C163.361 35.64 165.009 33.896 166.193 31.688C167.377 29.48 167.969 26.984 167.969 24.2C167.969 21.384 167.377 18.888 166.193 16.712C165.009 14.504 163.361 12.776 161.249 11.528C159.169 10.248 156.785 9.608 154.097 9.608C151.409 9.608 149.009 10.248 146.897 11.528C144.817 12.776 143.169 14.504 141.953 16.712C140.769 18.888 140.177 21.384 140.177 24.2ZM137.393 24.2C137.393 21.736 137.809 19.464 138.641 17.384C139.473 15.272 140.641 13.448 142.145 11.912C143.649 10.344 145.409 9.128 147.425 8.264C149.473 7.4 151.697 6.968 154.097 6.968C156.497 6.968 158.705 7.4 160.721 8.264C162.769 9.128 164.545 10.344 166.049 11.912C167.553 13.448 168.721 15.272 169.553 17.384C170.385 19.464 170.801 21.736 170.801 24.2C170.801 26.664 170.385 28.952 169.553 31.064C168.721 33.144 167.553 34.968 166.049 36.536C164.545 38.072 162.769 39.272 160.721 40.136C158.705 41 156.497 41.432 154.097 41.432C151.697 41.432 149.473 41 147.425 40.136C145.409 39.272 143.649 38.072 142.145 36.536C140.641 34.968 139.473 33.144 138.641 31.064C137.809 28.952 137.393 26.664 137.393 24.2ZM176.954 7.4H179.594V38.504H193.466V41H176.954V7.4ZM199.58 41V38.504H216.236V41H199.58ZM199.58 9.896V7.4H216.236V9.896H199.58ZM199.58 23.816V21.32H215.276V23.816H199.58ZM198.188 7.4H200.828V41H198.188V7.4ZM223.733 7.4H226.373V41H223.733V7.4ZM240.293 7.4H243.653L228.869 23.144L244.373 41H241.013L225.605 23.192L240.293 7.4ZM249.1 31.304C249.644 32.712 250.3 33.992 251.068 35.144C251.868 36.296 252.844 37.224 253.996 37.928C255.148 38.6 256.524 38.936 258.124 38.936C260.3 38.936 261.996 38.344 263.212 37.16C264.46 35.944 265.084 34.408 265.084 32.552C265.084 30.92 264.716 29.608 263.98 28.616C263.244 27.624 262.284 26.824 261.1 26.216C259.948 25.576 258.732 25.016 257.452 24.536C256.492 24.184 255.484 23.768 254.428 23.288C253.404 22.776 252.444 22.168 251.548 21.464C250.652 20.728 249.916 19.848 249.34 18.824C248.796 17.8 248.524 16.568 248.524 15.128C248.524 13.528 248.908 12.12 249.676 10.904C250.444 9.656 251.516 8.696 252.892 8.024C254.268 7.32 255.82 6.968 257.548 6.968C259.34 6.968 260.876 7.304 262.156 7.976C263.468 8.648 264.556 9.496 265.42 10.52C266.284 11.544 266.94 12.6 267.388 13.688L265.084 14.984C264.732 14.12 264.22 13.272 263.548 12.44C262.908 11.608 262.092 10.92 261.1 10.376C260.108 9.8 258.876 9.512 257.404 9.512C255.452 9.512 253.948 10.024 252.892 11.048C251.836 12.04 251.308 13.288 251.308 14.792C251.308 16.04 251.612 17.112 252.22 18.008C252.828 18.904 253.74 19.72 254.956 20.456C256.172 21.16 257.676 21.832 259.468 22.472C260.396 22.824 261.356 23.256 262.348 23.768C263.34 24.28 264.236 24.92 265.036 25.688C265.868 26.456 266.54 27.384 267.052 28.472C267.564 29.528 267.82 30.792 267.82 32.264C267.82 33.64 267.564 34.888 267.052 36.008C266.572 37.128 265.884 38.104 264.988 38.936C264.124 39.736 263.1 40.36 261.916 40.808C260.732 41.224 259.452 41.432 258.076 41.432C256.124 41.432 254.412 41.032 252.94 40.232C251.468 39.432 250.236 38.36 249.244 37.016C248.252 35.672 247.484 34.216 246.94 32.648L249.1 31.304ZM273.936 7.4H276.576V41H273.936V7.4ZM273.456 2.168C273.456 1.656 273.632 1.224 273.984 0.871999C274.336 0.519998 274.752 0.343997 275.232 0.343997C275.744 0.343997 276.176 0.519998 276.528 0.871999C276.88 1.224 277.056 1.656 277.056 2.168C277.056 2.648 276.88 3.064 276.528 3.416C276.176 3.768 275.744 3.944 275.232 3.944C274.752 3.944 274.336 3.768 273.984 3.416C273.632 3.064 273.456 2.648 273.456 2.168ZM302.964 7.4H305.94L294.66 27.176V41H292.02V27.224L280.932 7.4H283.908L293.316 24.776L302.964 7.4ZM308.88 24.2C308.88 26.984 309.472 29.48 310.656 31.688C311.872 33.896 313.52 35.64 315.6 36.92C317.712 38.168 320.112 38.792 322.8 38.792C325.488 38.792 327.872 38.168 329.952 36.92C332.064 35.64 333.712 33.896 334.896 31.688C336.08 29.48 336.672 26.984 336.672 24.2C336.672 21.384 336.08 18.888 334.896 16.712C333.712 14.504 332.064 12.776 329.952 11.528C327.872 10.248 325.488 9.608 322.8 9.608C320.112 9.608 317.712 10.248 315.6 11.528C313.52 12.776 311.872 14.504 310.656 16.712C309.472 18.888 308.88 21.384 308.88 24.2ZM306.096 24.2C306.096 21.736 306.512 19.464 307.344 17.384C308.176 15.272 309.344 13.448 310.848 11.912C312.352 10.344 314.112 9.128 316.128 8.264C318.176 7.4 320.4 6.968 322.8 6.968C325.2 6.968 327.408 7.4 329.424 8.264C331.472 9.128 333.248 10.344 334.752 11.912C336.256 13.448 337.424 15.272 338.256 17.384C339.088 19.464 339.504 21.736 339.504 24.2C339.504 26.664 339.088 28.952 338.256 31.064C337.424 33.144 336.256 34.968 334.752 36.536C333.248 38.072 331.472 39.272 329.424 40.136C327.408 41 325.2 41.432 322.8 41.432C320.4 41.432 318.176 41 316.128 40.136C314.112 39.272 312.352 38.072 310.848 36.536C309.344 34.968 308.176 33.144 307.344 31.064C306.512 28.952 306.096 26.664 306.096 24.2ZM371.193 7.4H373.833V42.296L348.297 12.968V41H345.657V6.104L371.193 35.528V7.4ZM414.714 7.4H417.69L406.41 27.176V41H403.77V27.224L392.682 7.4H395.658L405.066 24.776L414.714 7.4ZM420.064 29.72L420.928 27.224H436.432L437.296 29.72H420.064ZM428.608 12.2L422.08 28.088L421.792 28.664L416.752 41H413.776L428.608 6.104L443.44 41H440.464L435.472 28.856L435.232 28.232L428.608 12.2ZM462.948 7.4H465.924L454.644 27.176V41H452.004V27.224L440.916 7.4H443.892L453.3 24.776L462.948 7.4ZM470.295 7.4H472.935V41H470.295V7.4ZM506.427 7.4H509.067V42.296L483.531 12.968V41H480.891V6.104L506.427 35.528V7.4ZM517.126 7.4H519.766V41H517.126V7.4ZM526.246 41H518.566V38.36H526.246C528.326 38.36 530.214 38.024 531.91 37.352C533.638 36.68 535.11 35.736 536.326 34.52C537.542 33.272 538.47 31.784 539.11 30.056C539.782 28.296 540.118 26.344 540.118 24.2C540.118 22.056 539.782 20.12 539.11 18.392C538.47 16.632 537.542 15.144 536.326 13.928C535.11 12.68 533.638 11.72 531.91 11.048C530.214 10.376 528.326 10.04 526.246 10.04H518.566V7.4H526.246C529.51 7.4 532.374 8.104 534.838 9.512C537.334 10.92 539.27 12.888 540.646 15.416C542.054 17.912 542.758 20.84 542.758 24.2C542.758 27.56 542.054 30.504 540.646 33.032C539.27 35.528 537.334 37.48 534.838 38.888C532.374 40.296 529.51 41 526.246 41ZM550.142 29.72L551.006 27.224H566.51L567.374 29.72H550.142ZM558.686 12.2L552.158 28.088L551.87 28.664L546.83 41H543.854L558.686 6.104L573.518 41H570.542L565.55 28.856L565.31 28.232L558.686 12.2Z" fill="white"/>
</svg>
